<svg width="128" height="128" xmlns="http://www.w3.org/2000/svg" preserveAspectRatio="xMidYMid meet" version="1.0">
 <g>
  <title>Layer 1</title>
  <path fill="none" stroke="#000" stroke-width="11" opacity="undefined" d="m64.25442,122.4821c-32.17573,0 -58.23807,-26.08132 -58.23807,-58.28047c0,-32.19916 26.06234,-58.28047 58.23807,-58.28047c32.17573,0 58.23807,26.08132 58.23807,58.28047c0,32.19916 -26.06234,58.28047 -58.23807,58.28047z" id="svg_100"/>
  <ellipse stroke-width="8" ry="35.77631" rx="35.97074" id="svg_103" cy="67.37875" cx="71.08097" stroke="#000" fill="#ffffff"/>
  <ellipse stroke-width="8" ry="34.64929" rx="32.40337" id="svg_106" cy="73.03721" cx="53.72062" stroke="#000" fill="#ffffff"/>
  <ellipse transform="matrix(0.509452, 0.0393535, -0.0235413, 0.469171, -43.2298, -69.5831)" stroke-width="11" ry="21.5" rx="15" id="svg_107" cy="277.79891" cx="207.14721" stroke="#000" fill="#ffffff"/>
  <ellipse transform="rotate(-9.45336, 98.4135, 58.9685) matrix(0.367907, -0.179193, 0.152968, 0.373355, -13.817, 10.7803)" stroke-width="11" ry="20" rx="12.5" id="svg_108" cy="229.6502" cx="209.56733" stroke="#000" fill="#ffffff"/>
  <path id="svg_111" d="m79.46086,76.4332l6.17972,-16.52591l8.67189,15.53321l-14.85161,0.99271l0,0z" stroke-width="4" stroke="#000" fill="#ffffff"/>
  <path fill="#ffffff" stroke="#ffffff" stroke-width="4" opacity="undefined" d="m87.1054,41.43916c-7.84687,-2.07673 -12.25008,-6.47217 -10.9182,-12.10566c1.33187,-5.63348 10.46783,-8.72499 15.52169,-7.36591c5.05386,1.35908 6.887,2.55637 9.63921,4.17984c2.7522,1.62346 2.73421,7.11491 -2.53843,7.85549c-5.27265,0.74058 -0.41002,-1.18598 2.05948,1.28015c2.4695,2.46612 1.38138,4.91908 -1.41111,6.64492c-2.79249,1.72584 -4.50575,1.58791 -12.35262,-0.48882l0,0z" id="svg_14"/>
  <path id="svg_136" d="m82.84169,21.6339c-4.77689,1.47653 -8.18268,3.8461 -9.1712,7.80939c-0.91566,4.3326 3.62931,9.83643 9.15059,12.04611c5.52128,2.20968 12.25113,4.14045 16.76159,2.65945c4.64339,-1.60145 6.85459,-5.53081 2.21513,-8.42318" opacity="NaN" stroke-width="4" stroke="#000000" fill="#ffffff"/>
  <path id="svg_128" d="m89.79526,16.97485c-7.46946,3.14821 -7.54345,6.94424 -7.54345,6.94424" opacity="NaN" stroke-width="4" stroke="#000000" fill="#ffffff"/>
  <path fill="#ffffff" stroke="#000000" stroke-width="4" opacity="NaN" d="m82.65128,22.42088c-2.35214,5.59748 1.40181,10.91636 9.85207,13.08877c8.45027,2.17242 11.90153,-0.85871 12.54577,-5.33256" id="svg_11"/>
  <path id="svg_126" d="m90.31696,16.40436c-3.43392,6.29598 -0.55938,9.03431 3.02698,9.73489" opacity="NaN" stroke-width="4" stroke="#000000" fill="#ffffff"/>
  <path fill="#ffffff" stroke="#000000" stroke-width="4" opacity="NaN" d="m89.22388,20.79687c12.81513,1.81673 16.74206,8.07808 15.5853,10.54127" id="svg_9"/>
 </g>

</svg>
