<?xml version="1.0" standalone="no"?>
<!DOCTYPE svg PUBLIC "-//W3C//DTD SVG 20010904//EN"
 "http://www.w3.org/TR/2001/REC-SVG-20010904/DTD/svg10.dtd">
<svg version="1.0" xmlns="http://www.w3.org/2000/svg"
 width="1000.000000pt" height="1000.000000pt" viewBox="0 0 1000.000000 1000.000000"
 preserveAspectRatio="xMidYMid meet">

<g transform="translate(0.000000,1000.000000) scale(0.100000,-0.100000)"
fill="#000000" stroke="none">
<path d="M3605 7361 c-51 -9 -73 -21 -110 -62 -16 -18 -21 -27 -10 -19 11 8
26 23 33 32 35 48 171 49 311 2 128 -42 218 -110 350 -263 96 -112 178 -250
222 -376 15 -44 28 -72 28 -63 2 29 -50 161 -87 223 -82 138 -141 216 -238
311 -90 89 -115 108 -206 152 -115 58 -208 77 -293 63z"/>
<path d="M3438 7228 c-45 -90 -59 -133 -82 -253 -28 -145 -43 -274 -31 -263 5
5 14 61 22 125 16 139 52 286 91 366 16 31 26 57 23 57 -4 0 -14 -15 -23 -32z"/>
<path d="M6600 6989 c-47 -4 -112 -14 -145 -22 l-60 -16 55 6 c30 3 65 9 78
14 33 13 246 3 315 -14 33 -8 55 -11 50 -6 -4 4 -51 16 -103 25 -52 9 -97 17
-100 18 -3 0 -43 -2 -90 -5z"/>
<path d="M6350 6944 c-55 -18 -101 -37 -98 -40 2 -2 35 8 73 21 39 13 63 24
55 24 -8 0 -22 -3 -30 -5z"/>
<path d="M6910 6940 c0 -6 6 -13 14 -16 29 -11 69 -86 87 -161 32 -138 23
-242 -37 -419 -33 -97 -120 -273 -171 -344 l-24 -35 31 35 c62 69 130 204 195
385 65 182 50 402 -35 521 -19 26 -60 49 -60 34z"/>
<path d="M6200 6890 c-8 -5 -10 -10 -5 -10 6 0 17 5 25 10 8 5 11 10 5 10 -5
0 -17 -5 -25 -10z"/>
<path d="M9025 6870 c-22 -11 -29 -17 -15 -14 100 27 213 9 257 -39 42 -45 71
-236 48 -319 -35 -132 -66 -191 -163 -313 -73 -92 -127 -144 -271 -263 -42
-35 20 6 76 50 l63 49 59 -45 c74 -57 108 -98 151 -181 18 -36 35 -63 38 -60
12 12 -70 145 -123 198 -32 33 -66 74 -75 91 -15 31 -15 32 20 66 106 106 194
238 232 349 18 51 23 88 23 166 0 92 -3 106 -32 167 -26 56 -38 70 -75 89 -62
32 -161 36 -213 9z"/>
<path d="M3700 6850 c-38 -41 -58 -105 -71 -225 -14 -123 0 -241 43 -370 54
-163 91 -203 209 -231 67 -16 111 -10 191 26 95 42 169 158 167 260 -2 121
-37 188 -198 382 -136 166 -274 229 -341 158z m162 -16 c52 -26 215 -199 273
-288 92 -141 108 -228 60 -334 -31 -69 -103 -143 -156 -161 -48 -16 -172 -5
-218 19 -62 31 -85 65 -134 190 -33 85 -48 178 -48 302 0 119 29 233 71 278
25 26 29 28 73 19 26 -4 61 -16 79 -25z"/>
<path d="M6095 6850 c-19 -8 -19 -9 2 -9 12 -1 25 4 28 9 7 12 -2 12 -30 0z"/>
<path d="M8910 6823 c-30 -13 -57 -28 -60 -32 -3 -4 -30 -27 -60 -50 -30 -24
-59 -51 -65 -60 -5 -9 -29 -42 -52 -73 -52 -69 -74 -105 -112 -183 -47 -97
-61 -132 -61 -153 0 -41 -31 -63 -105 -73 -39 -5 -91 -12 -117 -15 -37 -5 -54
-3 -75 12 -15 10 -52 23 -81 30 -64 15 -124 1 -173 -40 -17 -14 -34 -26 -37
-26 -4 0 -25 -22 -47 -50 -22 -27 -44 -50 -50 -50 -12 0 -116 -64 -170 -105
-213 -160 -338 -275 -476 -435 -35 -41 -66 -77 -69 -80 -30 -30 -110 -151
-145 -220 -21 -42 -30 -50 -62 -56 -21 -4 -55 -15 -75 -25 -21 -11 -45 -19
-54 -19 -9 0 -57 -18 -106 -41 -50 -22 -97 -39 -106 -37 -16 3 -31 50 -58 178
-27 126 -65 261 -103 359 -21 57 -20 71 6 71 9 0 14 3 10 6 -3 3 -33 -4 -67
-16 -34 -12 -96 -29 -139 -37 -134 -25 -153 -33 -71 -26 41 3 102 14 135 24
33 10 65 19 70 19 12 0 55 -73 55 -92 0 -7 15 -53 34 -103 28 -73 68 -242 92
-386 4 -21 -3 -31 -38 -56 -94 -68 -239 -241 -237 -283 0 -13 1 -13 7 0 30 65
107 154 199 232 114 95 359 211 445 212 34 0 39 4 60 46 45 92 110 182 253
350 53 63 230 234 307 296 117 95 291 204 304 191 3 -3 -1 -20 -10 -39 -83
-180 -93 -353 -27 -493 16 -36 33 -65 36 -65 3 0 -2 14 -11 32 -51 98 -67 247
-40 363 22 92 84 230 126 281 56 68 98 92 173 100 59 6 69 4 116 -22 122 -66
191 -205 191 -384 0 -101 -15 -163 -65 -264 -45 -92 -65 -119 -124 -169 -19
-15 -31 -30 -29 -33 11 -11 111 92 144 149 120 204 121 477 2 630 -16 20 -27
41 -24 46 7 11 169 36 188 28 12 -4 13 -18 7 -68 -4 -34 -3 -72 1 -83 6 -13 9
-16 10 -6 15 251 66 387 224 593 70 92 170 178 227 197 22 8 42 17 45 22 8 12
-6 8 -66 -19z"/>
<path d="M6034 6814 c-18 -14 -18 -14 6 -3 31 14 36 19 24 19 -6 0 -19 -7 -30
-16z"/>
<path d="M5980 6782 c-136 -91 -287 -252 -323 -344 -6 -18 -32 -25 -39 -10
-11 25 -210 117 -313 145 -169 45 -185 47 -353 47 -127 0 -174 -4 -195 -15
-15 -8 -46 -17 -68 -19 -45 -6 -109 -27 -109 -36 0 -4 42 4 93 17 282 74 630
35 835 -94 29 -18 56 -33 60 -33 5 0 19 -14 31 -31 l23 -31 -21 -47 c-24 -53
-41 -122 -40 -166 0 -18 6 -5 15 35 21 99 60 186 129 290 66 99 123 159 238
250 58 46 75 62 65 59 -2 0 -14 -8 -28 -17z"/>
<path d="M940 6766 c41 -13 82 -25 90 -27 8 -2 17 -6 20 -9 3 -3 26 -18 51
-32 41 -24 71 -54 142 -143 40 -49 87 -152 108 -234 20 -78 30 -315 15 -340
-5 -7 -9 -22 -11 -34 -2 -12 -6 -38 -10 -57 l-6 -35 14 31 c21 44 40 207 33
266 -6 40 -4 49 11 55 26 10 236 -16 251 -31 11 -11 9 -23 -11 -72 -57 -135
-79 -300 -57 -420 12 -67 46 -151 56 -141 3 3 -1 16 -9 29 -63 101 -41 387 43
563 73 152 230 232 353 180 62 -26 132 -134 164 -250 l13 -50 -5 45 c-8 64
-53 180 -84 213 -14 16 -45 40 -68 53 -85 51 -205 19 -307 -80 -50 -49 -62
-57 -85 -51 -51 13 -147 25 -208 25 -58 0 -63 2 -64 23 -2 55 -41 190 -75 259
-47 94 -198 229 -302 271 -23 9 -64 17 -90 16 l-47 0 75 -23z"/>
<path d="M802 6760 c-18 -11 -32 -22 -32 -25 0 -5 33 11 69 33 2 1 2 4 0 7 -3
2 -19 -5 -37 -15z"/>
<path d="M710 6674 c-41 -65 -43 -76 -37 -206 5 -116 8 -142 25 -174 5 -11 21
-44 35 -74 14 -30 38 -74 52 -97 20 -33 23 -43 11 -43 -8 0 -18 -5 -21 -10 -4
-7 2 -9 18 -5 21 6 32 -4 83 -68 52 -66 165 -162 164 -140 -1 4 -22 23 -48 42
-98 70 -202 218 -273 386 -31 74 -34 88 -34 190 0 105 2 114 32 175 17 36 30
66 28 68 -2 3 -18 -18 -35 -44z"/>
<path d="M3322 6675 c0 -16 2 -22 5 -12 2 9 2 23 0 30 -3 6 -5 -1 -5 -18z"/>
<path d="M6470 6636 c-154 -35 -393 -179 -514 -309 -77 -83 -98 -127 -98 -202
0 -48 7 -80 27 -122 34 -76 58 -100 130 -134 48 -23 74 -29 127 -29 106 0 169
29 251 114 38 39 75 85 84 101 9 17 27 44 41 60 39 46 138 257 152 325 19 88
9 138 -34 177 -40 37 -71 40 -166 19z m135 -20 c42 -18 48 -39 44 -144 -4 -72
-8 -86 -71 -212 -39 -78 -91 -164 -123 -205 -31 -38 -64 -80 -74 -93 -10 -12
-52 -40 -95 -62 -67 -35 -86 -40 -142 -40 -109 0 -202 62 -250 165 -39 84 -29
162 31 240 34 44 135 145 145 145 4 0 32 20 63 44 67 52 220 132 297 157 69
22 131 23 175 5z"/>
<path d="M3327 6555 c4 -44 10 -91 14 -105 10 -34 -1 117 -11 155 -5 18 -6 -2
-3 -50z"/>
<path d="M4436 6535 c13 -87 16 -100 20 -104 10 -11 2 58 -11 99 l-15 45 6
-40z"/>
<path d="M4511 6519 c-24 -11 -42 -22 -39 -24 3 -3 18 1 34 10 16 8 34 15 41
15 6 0 15 5 18 10 9 14 -3 12 -54 -11z"/>
<path d="M3351 6404 c0 -11 3 -14 6 -6 3 7 2 16 -1 19 -3 4 -6 -2 -5 -13z"/>
<path d="M4452 6400 c0 -14 2 -19 5 -12 2 6 2 18 0 25 -3 6 -5 1 -5 -13z"/>
<path d="M3361 6364 c0 -11 3 -14 6 -6 3 7 2 16 -1 19 -3 4 -6 -2 -5 -13z"/>
<path d="M4451 6334 c0 -11 3 -14 6 -6 3 7 2 16 -1 19 -3 4 -6 -2 -5 -13z"/>
<path d="M3370 6336 c-1 -28 62 -180 79 -191 16 -9 14 1 -11 48 -11 23 -32 67
-44 97 -13 30 -23 51 -24 46z"/>
<path d="M3475 6105 c40 -76 82 -137 105 -150 8 -5 1 9 -16 30 -17 22 -38 54
-47 70 -9 17 -26 41 -37 55 l-21 25 16 -30z"/>
<path d="M4705 6089 c-122 -17 -323 -88 -428 -151 -97 -58 -95 -69 4 -15 160
87 324 140 471 154 l72 6 -47 -64 c-55 -75 -110 -175 -133 -239 -54 -149 -63
-178 -68 -210 -3 -19 9 8 28 60 69 194 130 324 173 367 10 10 28 31 41 47 28
37 91 47 206 34 205 -22 504 -175 669 -340 84 -84 197 -255 226 -340 39 -113
62 -254 56 -345 -10 -161 -100 -345 -251 -515 -31 -34 -97 -88 -110 -88 -4 0
-51 -29 -104 -64 -95 -62 -253 -131 -375 -162 -30 -7 -40 -13 -25 -13 14 0 43
4 65 9 58 14 193 14 211 0 28 -24 16 -58 -38 -110 -49 -47 -154 -110 -185
-110 -9 0 -13 -17 -13 -62 0 -35 -4 -100 -10 -145 l-9 -82 -59 -59 c-32 -32
-61 -70 -65 -83 l-6 -24 17 25 c62 92 192 181 242 165 47 -15 1 -183 -75 -273
-51 -61 -163 -108 -315 -133 -118 -20 -371 -17 -450 5 -112 31 -182 56 -260
94 -94 46 -101 48 -70 22 39 -32 87 -55 185 -88 204 -68 333 -82 520 -57 155
20 225 38 304 78 83 41 106 66 160 167 68 128 60 209 -19 196 -83 -13 -75 -25
-78 110 l-3 121 76 38 c214 106 261 233 86 235 -18 1 16 21 104 64 179 88 277
166 386 308 32 42 59 79 59 81 0 2 22 44 49 93 102 184 111 402 25 609 -50
119 -98 188 -223 324 -114 123 -154 152 -332 243 -146 75 -209 100 -288 114
-83 15 -301 16 -396 3z"/>
<path d="M714 6041 c-36 -16 -66 -41 -50 -41 8 0 79 40 91 51 13 13 5 11 -41
-10z"/>
<path d="M598 5942 c-57 -61 -96 -160 -106 -267 l-7 -80 -66 -16 c-60 -16 -99
-33 -203 -92 -35 -20 -80 -69 -113 -122 -30 -49 -44 -77 -39 -82 2 -3 12 10
22 29 52 101 178 206 283 238 72 22 308 32 406 18 l50 -8 -50 16 c-27 8 -99
18 -160 22 -130 8 -128 6 -99 131 20 89 53 159 101 219 46 56 36 53 -19 -6z"/>
<path d="M2186 5928 c-4 -33 -17 -86 -28 -117 -21 -58 -89 -182 -116 -213 -9
-10 -10 -18 -4 -18 6 0 37 40 70 89 42 64 64 110 77 158 26 103 28 108 45 92
8 -8 51 -43 95 -77 44 -35 117 -100 163 -145 46 -45 81 -75 77 -66 -11 28
-188 193 -273 254 -49 35 -82 65 -82 76 0 10 -4 20 -9 23 -5 3 -12 -22 -15
-56z"/>
<path d="M6735 5923 c-63 -73 -150 -150 -232 -205 -91 -61 -103 -77 -25 -31
119 70 273 204 287 251 8 29 6 27 -30 -15z"/>
<path d="M3525 5833 c-81 -95 -189 -258 -200 -301 -3 -13 -17 -42 -31 -64 -37
-58 -92 -179 -105 -232 -10 -39 -15 -46 -35 -46 -15 0 -36 13 -55 34 -16 19
-53 49 -82 67 -28 18 -54 36 -57 39 -10 11 -86 55 -125 74 -22 10 -47 22 -55
26 -9 4 -29 11 -45 14 -41 9 -63 31 -110 103 -22 35 -44 63 -48 63 -5 0 7 -23
27 -50 20 -28 36 -52 36 -55 0 -22 50 -67 84 -76 112 -30 272 -126 382 -232
103 -97 186 -225 265 -405 13 -30 25 -50 27 -44 8 26 -172 355 -208 377 -10 6
14 118 38 181 18 45 38 83 136 268 49 92 122 203 162 246 18 19 44 48 57 64
l24 30 37 -37 c20 -20 51 -44 69 -53 27 -13 23 -7 -23 35 -30 28 -62 55 -70
60 -11 6 -35 -15 -95 -86z"/>
<path d="M4170 5870 c-9 -6 -10 -10 -3 -10 6 0 15 5 18 10 8 12 4 12 -15 0z"/>
<path d="M9271 5713 c-1 -7 6 -33 15 -59 8 -25 13 -52 10 -59 -2 -7 -24 -16
-48 -20 -49 -8 -200 -78 -220 -103 -8 -10 3 -7 32 10 118 67 285 103 482 103
81 0 139 3 130 6 -34 13 -219 18 -278 9 -38 -6 -62 -6 -68 0 -6 6 -20 36 -32
68 -13 31 -23 52 -23 45z"/>
<path d="M1645 5641 c-13 -5 15 -10 80 -13 88 -4 109 -9 173 -40 39 -19 72
-31 72 -27 0 38 -266 104 -325 80z"/>
<path d="M1477 5582 c-68 -37 -187 -144 -169 -150 6 -2 29 17 51 41 22 24 79
65 126 92 47 26 85 49 85 51 0 11 -32 0 -93 -34z"/>
<path d="M8170 5589 c-58 -12 -109 -29 -132 -44 -21 -14 -41 -25 -45 -25 -17
0 -113 -100 -113 -117 1 -16 2 -16 16 2 61 81 133 126 251 159 51 14 108 26
127 26 20 0 36 5 36 10 0 14 -29 11 -140 -11z"/>
<path d="M8370 5588 c0 -5 8 -11 18 -14 9 -4 41 -16 70 -27 112 -45 242 -232
250 -360 4 -55 1 -65 -22 -89 -14 -16 -29 -28 -34 -28 -20 0 -20 -28 -1 -33
27 -7 24 -34 -3 -31 -13 1 -27 3 -32 3 -4 1 -6 8 -2 16 3 9 0 15 -8 15 -8 0
-16 -4 -18 -8 -4 -11 -177 -74 -187 -68 -4 3 -13 1 -21 -5 -22 -13 40 -12 93
3 37 10 50 8 101 -11 31 -12 62 -19 67 -16 5 4 9 1 9 -4 0 -6 5 -11 10 -11 14
0 12 27 -2 33 -8 3 -6 6 5 6 9 1 17 -6 17 -14 0 -29 -48 -110 -84 -143 -20
-18 -36 -37 -36 -42 0 -5 -34 -26 -77 -47 -70 -35 -84 -38 -177 -41 -87 -3
-112 0 -178 21 -78 26 -133 51 -141 64 -3 5 2 15 11 23 14 13 15 12 10 -2 -11
-29 38 -32 85 -6 45 25 55 51 22 55 -11 2 -31 4 -45 6 -14 2 -30 14 -37 28
-11 21 -10 25 10 32 13 5 50 4 87 -2 87 -14 312 -25 345 -17 23 6 24 8 10 22
-10 11 -25 14 -43 11 -137 -29 -187 -27 -196 8 -6 23 -11 24 -109 28 -127 5
-198 19 -259 51 -41 21 -48 23 -48 9 0 -36 -10 -3 -20 64 -11 80 0 164 30 223
21 42 16 73 -7 40 -43 -62 -58 -256 -27 -360 69 -232 314 -369 564 -316 104
22 175 60 246 130 103 102 130 179 121 344 -6 125 -24 191 -70 259 -18 26 -36
56 -40 65 -7 18 -93 85 -147 113 -41 22 -110 36 -110 23z m331 -594 c-9 -55
-18 -30 -13 36 4 44 6 50 12 29 4 -14 4 -43 1 -65z m-141 -14 c0 -5 -4 -10
-10 -10 -5 0 -10 5 -10 10 0 6 5 10 10 10 6 0 10 -4 10 -10z m-680 -30 c0 -5
-2 -10 -4 -10 -3 0 -8 5 -11 10 -3 6 -1 10 4 10 6 0 11 -4 11 -10z m3 -60 c9
-23 22 -38 27 -35 6 3 10 1 10 -4 0 -16 -15 -13 -32 7 -19 22 -40 72 -30 72 4
0 15 -18 25 -40z m290 23 c-7 -2 -19 -2 -25 0 -7 3 -2 5 12 5 14 0 19 -2 13
-5z m50 0 c-7 -2 -19 -2 -25 0 -7 3 -2 5 12 5 14 0 19 -2 13 -5z m-260 -48
c-7 -19 -17 -19 -32 -1 -10 12 -8 13 10 9 17 -5 20 -3 14 7 -5 8 -4 11 3 6 6
-4 9 -13 5 -21z m29 -40 c6 -28 -6 -34 -16 -9 -5 14 0 34 8 34 2 0 6 -11 8
-25z m-22 -37 c0 -6 -6 -5 -15 2 -8 7 -15 14 -15 16 0 2 7 1 15 -2 8 -4 15
-11 15 -16z m96 -13 c-8 -8 -21 -15 -28 -15 -8 1 -6 6 6 15 26 20 42 19 22 0z"/>
<path d="M1994 5538 l-29 -33 33 29 c17 17 32 31 32 33 0 8 -8 1 -36 -29z"/>
<path d="M9745 5563 c44 -9 146 -66 164 -91 30 -43 48 -94 45 -132 -3 -44 -7
-63 -15 -70 -3 -3 -12 -15 -20 -27 -42 -61 -183 -151 -294 -186 -121 -38 -441
-64 -540 -43 -23 5 -25 4 -10 -3 11 -5 46 -13 78 -16 31 -4 60 -11 63 -16 6
-10 -87 -189 -131 -251 -18 -27 -55 -70 -82 -97 -26 -27 -66 -68 -88 -92 -42
-47 -159 -138 -241 -188 -47 -29 -248 -132 -269 -137 -16 -5 -140 -49 -144
-51 -2 -2 -2 -5 0 -8 10 -9 164 52 287 113 156 78 297 174 372 254 152 161
236 271 281 368 16 36 33 72 38 80 6 11 33 17 92 21 166 13 337 55 434 106 65
34 148 104 175 148 39 63 26 189 -26 246 -24 26 -136 79 -165 78 -20 -1 -21
-2 -4 -6z"/>
<path d="M2055 5488 c22 -23 43 -45 46 -48 4 -3 23 -32 42 -65 46 -80 64 -165
47 -237 -14 -62 -35 -98 -55 -98 -8 0 -15 -7 -15 -15 0 -8 -6 -15 -14 -15 -19
0 -25 -30 -10 -59 11 -22 12 -22 23 -5 6 11 11 15 11 11 0 -8 -36 -62 -57 -85
-7 -7 -13 -17 -13 -21 0 -12 -93 -72 -185 -120 -40 -21 -234 -23 -259 -2 -12
10 -13 17 -6 26 8 9 6 14 -6 19 -9 4 -19 4 -22 1 -3 -3 0 -5 6 -5 7 0 12 -5
12 -10 0 -6 -12 -8 -27 -5 l-28 6 30 -15 30 -16 -35 6 c-33 5 -180 81 -180 93
0 3 -10 17 -21 31 -11 14 -18 18 -14 10 4 -8 -6 1 -24 20 -21 24 -29 42 -26
58 4 17 1 22 -13 22 -10 0 -24 11 -30 25 -6 14 -16 25 -22 25 -15 0 -13 -7 21
-70 69 -130 185 -214 347 -251 86 -20 101 -21 177 -10 142 22 269 94 335 191
61 90 93 196 92 304 -1 82 -4 96 -37 161 -35 71 -126 185 -148 185 -6 0 7 -19
28 -42z m91 -474 c-3 -9 -6 -22 -6 -30 0 -9 -4 -13 -9 -10 -11 7 -2 56 11 56
6 0 7 -7 4 -16z"/>
<path d="M4556 5503 c-21 -53 -47 -338 -44 -478 l3 -150 -30 -38 c-56 -70
-168 -145 -293 -195 -85 -34 -90 -38 -70 -55 62 -50 168 -127 193 -140 97 -50
139 -67 215 -87 206 -53 560 -3 696 100 21 16 48 30 59 30 34 1 -5 20 -41 20
-120 0 -495 186 -645 318 -62 55 -72 93 -71 267 1 150 4 180 28 323 15 89 15
124 0 85z m215 -827 c17 -14 38 -26 46 -26 9 0 24 -6 32 -14 9 -8 57 -30 106
-49 110 -43 183 -76 170 -77 -5 0 -3 -5 5 -10 8 -5 24 -7 35 -4 11 3 28 -1 38
-8 17 -12 15 -15 -17 -29 -32 -15 -34 -15 -31 2 3 17 -22 35 -33 24 -3 -3 0
-5 6 -5 7 0 12 -11 12 -24 0 -20 -9 -27 -57 -44 -74 -27 -264 -62 -334 -62
-57 0 -206 23 -274 43 -54 15 -111 57 -93 69 8 6 4 7 -12 2 -14 -3 -22 -3 -18
1 4 4 -4 19 -18 33 -26 29 -29 39 -14 62 8 13 10 12 10 -3 0 -23 29 -54 38
-41 4 5 25 10 47 12 21 1 41 6 45 10 3 5 26 17 52 28 27 10 48 23 48 27 0 5
-4 6 -8 3 -4 -2 -14 -1 -22 5 -12 7 -11 9 4 9 10 0 26 9 35 19 9 11 30 21 46
24 l30 4 -32 2 c-17 0 -38 -5 -45 -12 -21 -20 -102 -49 -106 -37 -2 5 -8 10
-14 10 -5 0 -6 -9 -3 -21 6 -19 4 -20 -24 -14 -20 4 -31 3 -31 -4 0 -6 5 -11
12 -11 9 0 9 -3 0 -12 -10 -10 -15 -10 -22 2 -7 10 -10 11 -10 3 0 -7 -8 -13
-17 -12 -13 0 -14 2 -4 6 11 4 11 7 0 13 -30 19 39 64 146 95 171 51 226 53
276 11z m-271 -86 c0 -5 -4 -10 -10 -10 -5 0 -10 5 -10 10 0 6 5 10 10 10 6 0
10 -4 10 -10z"/>
<path d="M4678 4683 c7 -3 16 -2 19 1 4 3 -2 6 -13 5 -11 0 -14 -3 -6 -6z"/>
<path d="M4723 4679 c21 -12 22 -29 2 -29 -8 0 -15 5 -15 10 0 6 -13 10 -30
10 -18 0 -29 -5 -27 -12 1 -7 -13 -15 -33 -19 -32 -6 -30 -6 17 -8 28 0 53 -6
55 -11 2 -7 29 -8 76 -4 42 4 68 10 61 15 -7 4 -17 5 -21 3 -4 -3 -8 -1 -8 5
0 5 -10 13 -22 17 -12 3 -28 13 -36 20 -7 8 -19 14 -25 14 -7 0 -4 -5 6 -11z
m-33 -30 c0 -8 13 -9 40 -5 25 4 40 2 40 -4 0 -11 -59 -14 -84 -4 -18 7 -22
24 -6 24 6 0 10 -5 10 -11z"/>
<path d="M4603 4673 c9 -2 23 -2 30 0 6 3 -1 5 -18 5 -16 0 -22 -2 -12 -5z"/>
<path d="M4510 4656 c0 -2 7 -6 15 -10 8 -3 15 -1 15 4 0 6 -7 10 -15 10 -8 0
-15 -2 -15 -4z"/>
<path d="M4470 4639 c0 -5 5 -7 10 -4 6 3 10 8 10 11 0 2 -4 4 -10 4 -5 0 -10
-5 -10 -11z"/>
<path d="M7842 5388 c36 -50 52 -68 60 -68 10 0 -64 99 -75 99 -4 1 3 -13 15
-31z"/>
<path d="M46 5239 c-21 -106 36 -188 159 -229 51 -18 170 -17 259 0 65 13 70
13 80 -4 140 -231 329 -410 553 -519 98 -48 268 -110 290 -105 10 2 -9 11 -42
21 -82 25 -127 43 -218 88 -42 22 -77 36 -77 32 0 -5 -4 -3 -8 2 -4 6 -47 37
-97 69 -166 109 -385 353 -385 428 0 8 38 33 85 56 61 30 107 62 155 110 92
88 90 102 -2 17 -120 -109 -326 -194 -475 -195 -55 0 -146 24 -189 50 -57 36
-78 74 -78 147 0 35 -1 63 -2 63 -1 0 -4 -14 -8 -31z"/>
<path d="M3683 5193 c-12 -41 -6 -269 8 -312 16 -52 89 -201 108 -221 9 -9 37
-41 63 -71 26 -31 67 -69 90 -85 24 -16 59 -41 78 -55 19 -15 72 -46 117 -69
78 -40 95 -60 53 -60 -32 0 -50 -11 -66 -41 -26 -51 7 -89 124 -144 39 -19 72
-40 72 -48 0 -17 -58 -71 -135 -127 -33 -23 -76 -58 -97 -78 -35 -33 -37 -34
-74 -22 -22 8 -62 37 -97 73 -56 57 -60 59 -99 54 -61 -8 -78 -30 -78 -98 0
-99 40 -186 127 -280 41 -43 82 -79 92 -79 9 0 -8 22 -45 55 -60 53 -119 138
-142 204 -7 19 -12 58 -12 87 0 60 23 94 63 94 30 0 81 -32 109 -70 25 -34 77
-70 101 -70 9 0 33 16 54 35 21 20 79 66 130 103 55 40 100 82 112 103 l21 36
-76 33 c-88 39 -134 77 -134 113 0 32 17 45 75 56 38 7 59 5 104 -11 112 -39
248 -69 331 -73 47 -2 69 -1 50 1 -142 17 -417 93 -483 132 -18 11 -68 39
-112 62 -131 70 -199 124 -268 213 -83 108 -89 119 -123 212 -27 75 -29 89
-28 228 0 81 -1 147 -3 147 -1 0 -6 -12 -10 -27z"/>
<path d="M3915 5070 c-29 -33 -33 -160 -6 -231 25 -67 80 -133 120 -147 68
-24 113 69 85 177 -46 175 -138 268 -199 201z"/>
<path d="M5399 5000 c-66 -69 -95 -207 -68 -316 27 -107 128 -97 190 20 73
136 41 336 -53 336 -23 0 -41 -10 -69 -40z"/>
<path d="M2455 5001 c-50 -22 -108 -75 -129 -118 -21 -42 -21 -145 0 -189 25
-52 105 -118 179 -148 149 -60 327 -12 375 100 28 64 25 110 -10 182 -59 116
-179 192 -305 192 -46 0 -84 -7 -110 -19z m259 -45 c144 -80 199 -193 151
-308 -10 -24 -106 -85 -156 -98 -98 -27 -269 27 -338 105 -58 67 -68 168 -22
232 84 116 231 144 365 69z"/>
<path d="M2038 4983 c19 -8 14 -21 -10 -25 -13 -2 -24 -11 -26 -20 -5 -26 34
-23 41 2 6 23 27 27 27 6 0 -8 4 -17 9 -20 4 -3 8 3 7 14 -1 19 -33 50 -51 49
-5 0 -4 -3 3 -6z"/>
<path d="M1950 4967 c-50 -12 -68 -28 -42 -39 26 -10 29 -9 35 12 4 15 14 20
36 20 17 0 31 5 31 10 0 11 1 11 -60 -3z"/>
<path d="M1321 4951 c-19 -12 17 -63 39 -54 8 3 56 5 106 4 57 -2 94 2 99 8 4
7 -5 12 -22 12 -26 2 -25 2 7 9 47 10 17 13 -96 10 -58 -1 -94 2 -98 9 -9 13
-16 14 -35 2z m32 -22 c4 -16 3 -18 -9 -8 -16 13 -19 29 -5 29 5 0 11 -9 14
-21z"/>
<path d="M1613 4933 c9 -2 23 -2 30 0 6 3 -1 5 -18 5 -16 0 -22 -2 -12 -5z"/>
<path d="M1728 4933 c6 -2 18 -2 25 0 6 3 1 5 -13 5 -14 0 -19 -2 -12 -5z"/>
<path d="M1818 4933 c7 -3 16 -2 19 1 4 3 -2 6 -13 5 -11 0 -14 -3 -6 -6z"/>
<path d="M7520 4930 c0 -5 4 -10 10 -10 5 0 28 -16 50 -36 51 -47 65 -95 51
-177 -17 -96 -85 -172 -208 -229 -117 -56 -222 -41 -320 46 -54 48 -71 112
-53 199 9 46 21 67 62 112 59 65 58 83 -2 29 -52 -47 -78 -97 -86 -167 -8 -68
7 -115 57 -183 97 -131 317 -120 471 24 67 63 97 116 104 188 7 67 -6 106 -55
157 -30 33 -81 63 -81 47z"/>
<path d="M1605 4909 c-4 -5 8 -9 26 -9 35 0 35 8 1 15 -12 2 -24 0 -27 -6z"/>
<path d="M1705 4909 c-27 -6 -26 -7 10 -7 22 0 49 3 60 8 16 7 15 8 -10 7 -17
-1 -44 -5 -60 -8z"/>
<path d="M1382 4868 c10 -16 27 -24 52 -26 39 -3 86 20 65 33 -7 5 -16 1 -21
-9 -12 -22 -48 -21 -49 2 0 14 -2 14 -9 -3 -7 -18 -9 -18 -15 -3 -3 9 -14 19
-22 22 -14 6 -14 4 -1 -16z"/>
<path d="M1558 4883 c12 -2 30 -2 40 0 9 3 -1 5 -23 4 -22 0 -30 -2 -17 -4z"/>
<path d="M1825 4879 c4 -6 14 -8 22 -5 8 3 11 1 8 -4 -4 -6 6 -10 24 -8 17 1
33 8 35 15 4 10 -8 13 -45 13 -33 0 -48 -4 -44 -11z"/>
<path d="M1996 4853 c-6 -14 -5 -15 5 -6 7 7 10 15 7 18 -3 3 -9 -2 -12 -12z"/>
<path d="M1920 4835 c0 -9 5 -15 11 -13 6 2 11 8 11 13 0 5 -5 11 -11 13 -6 2
-11 -4 -11 -13z"/>
<path d="M1512 4815 c2 -16 -2 -19 -22 -17 -24 2 -24 2 5 -18 34 -22 59 -28
30 -6 -19 13 -18 14 5 9 14 -2 36 1 50 7 25 10 25 10 -3 5 -22 -5 -34 0 -49
17 -18 21 -20 22 -16 3z"/>
<path d="M1680 4790 c0 -5 5 -10 11 -10 5 0 7 5 4 10 -3 6 -8 10 -11 10 -2 0
-4 -4 -4 -10z"/>
<path d="M1768 4793 c6 -2 18 -2 25 0 6 3 1 5 -13 5 -14 0 -19 -2 -12 -5z"/>
<path d="M1863 4790 c-34 -14 -28 -21 7 -9 17 6 30 13 30 15 0 6 -12 4 -37 -6z"/>
<path d="M1757 4769 c7 -7 15 -10 18 -7 3 3 -2 9 -12 12 -14 6 -15 5 -6 -5z"/>
<path d="M3130 4684 c-52 -23 -90 -63 -90 -96 0 -68 74 -149 164 -178 53 -17
136 -9 174 18 23 17 32 33 37 66 9 55 -9 90 -69 143 -69 61 -146 77 -216 47z
m170 -29 c37 -19 87 -73 98 -105 15 -44 -4 -88 -48 -110 -68 -35 -166 -19
-239 39 -49 39 -59 77 -34 128 32 66 142 90 223 48z"/>
<path d="M6431 4574 c-56 -12 -146 -69 -186 -116 -13 -16 -30 -46 -36 -67 -10
-33 -9 -42 7 -66 30 -46 90 -77 160 -83 87 -7 124 3 193 49 96 64 126 151 76
219 -46 62 -122 85 -214 64z m186 -52 c33 -38 38 -66 19 -116 -19 -50 -64 -95
-126 -128 -59 -30 -169 -33 -216 -4 -35 21 -64 64 -64 95 0 20 30 72 62 111
70 84 266 109 325 42z"/>
<path d="M3704 4431 c-26 -11 -54 -49 -54 -72 0 -52 115 -124 216 -135 178
-19 211 98 51 179 -59 30 -174 45 -213 28z m217 -48 c56 -30 91 -68 87 -92 -6
-31 -68 -53 -133 -47 -120 10 -236 86 -206 134 4 6 22 18 41 27 51 23 147 13
211 -22z"/>
<path d="M1428 4373 c7 -3 16 -2 19 1 4 3 -2 6 -13 5 -11 0 -14 -3 -6 -6z"/>
<path d="M1462 4364 c25 -25 376 -63 459 -50 25 4 52 1 75 -9 48 -20 51 -19
26 8 -20 22 -26 23 -99 15 -95 -9 -364 11 -420 33 -27 10 -49 12 -41 3z"/>
<path d="M5759 4310 c-120 -21 -216 -100 -177 -147 20 -24 73 -43 120 -43 56
1 159 38 204 73 84 68 -8 141 -147 117z m139 -30 c27 -17 31 -23 22 -39 -22
-42 -122 -94 -202 -105 -61 -9 -118 13 -118 46 0 29 7 39 45 65 73 51 197 67
253 33z"/>
<path d="M2060 4276 c0 -2 7 -7 16 -10 8 -3 12 -2 9 4 -6 10 -25 14 -25 6z"/>
<path d="M3200 4255 c-78 -41 -235 -85 -362 -101 -226 -29 -463 -3 -648 71
-91 37 -122 40 -43 5 84 -38 225 -78 318 -91 163 -23 385 -10 536 30 84 23
100 15 130 -60 13 -32 27 -59 30 -59 4 0 -6 30 -21 67 -16 37 -26 71 -23 76 3
5 29 20 57 32 52 24 99 55 81 54 -5 0 -30 -11 -55 -24z"/>
<path d="M8205 4149 c-51 -16 -185 -38 -264 -44 -201 -14 -247 -14 -396 -3
-213 16 -261 15 -320 -8 -27 -10 -52 -21 -55 -24 -3 -3 -14 -6 -25 -6 -11 -1
-69 -9 -130 -18 -66 -11 -167 -18 -253 -18 -200 0 -309 21 -436 84 -73 37 -84
31 -14 -8 71 -38 133 -58 252 -79 194 -35 547 -4 682 60 61 29 73 30 174 11
144 -26 357 -29 540 -6 141 18 290 52 290 66 0 5 -10 4 -45 -7z"/>
<path d="M6410 3942 c-31 -69 -139 -242 -198 -317 -79 -101 -242 -250 -342
-315 -77 -49 -363 -190 -388 -190 -4 0 -19 -6 -34 -14 -14 -8 -43 -19 -63 -26
-20 -7 -35 -14 -32 -16 5 -5 97 27 162 56 28 13 59 26 70 31 11 4 68 30 127
58 59 28 111 51 116 51 5 0 17 9 28 21 10 12 31 27 47 35 34 18 157 122 216
183 135 139 300 390 327 497 11 42 0 26 -36 -54z"/>
<path d="M3187 3993 c4 -10 31 -60 60 -110 29 -51 53 -97 53 -102 0 -9 92
-131 139 -184 16 -18 57 -64 92 -104 70 -78 220 -211 284 -251 22 -14 42 -28
45 -32 3 -4 33 -22 68 -40 62 -33 63 -34 83 -102 21 -68 100 -203 142 -243
102 -96 245 -157 406 -170 68 -6 90 -4 169 19 50 15 113 38 141 51 28 14 54
25 57 25 9 0 136 85 164 109 52 47 139 132 142 140 2 5 19 19 38 31 l35 22
-40 -8 c-22 -4 -58 -10 -80 -14 -39 -7 -39 -8 -7 -9 32 -1 32 -1 18 -28 -16
-31 -115 -129 -163 -161 -162 -111 -373 -178 -503 -161 -95 13 -145 33 -256
98 -99 59 -149 107 -196 188 -12 21 -25 40 -29 43 -5 3 -18 41 -30 85 -23 85
-31 231 -16 315 6 38 6 41 -4 20 -6 -14 -13 -72 -16 -130 -6 -136 -5 -135 -45
-114 -83 43 -184 125 -319 256 -166 163 -230 234 -220 244 3 4 1 4 -5 1 -7 -4
-17 5 -24 22 -6 16 -19 37 -29 48 -19 20 -63 94 -112 191 -30 60 -56 94 -42
55z"/>
<path d="M4350 3870 c-18 -12 -2 -12 25 0 13 6 15 9 5 9 -8 0 -22 -4 -30 -9z"/>
<path d="M4456 3871 c56 -14 136 -65 180 -116 24 -27 44 -45 44 -40 0 6 -15
27 -32 47 -60 68 -145 119 -195 117 l-28 -1 31 -7z"/>
<path d="M4197 3784 c-69 -50 -188 -249 -186 -311 0 -21 6 -12 25 37 51 138
116 231 204 292 14 9 21 17 15 17 -5 0 -32 -15 -58 -35z"/>
<path d="M5318 3053 c7 -3 16 -2 19 1 4 3 -2 6 -13 5 -11 0 -14 -3 -6 -6z"/>
</g>
</svg>
