<svg width="1000" height="1000" xmlns="http://www.w3.org/2000/svg" version="1.0" preserveAspectRatio="xMidYMid meet">
 <g>
  <title>Layer 1</title>
  <path id="svg_100" d="m187.52427,344.57195c-92.21256,0 -166.90473,-72.73165 -166.90473,-162.52381c0,-89.79216 74.69217,-162.52381 166.90473,-162.52381c92.21256,0 166.90473,72.73165 166.90473,162.52381c0,89.79216 -74.69217,162.52381 -166.90473,162.52381z" opacity="undefined" stroke-width="19" stroke="#000" fill="none"/>
  <g id="svg_19">
   <ellipse fill="#ffffff" stroke="#000" cx="198.54809" cy="189.81004" id="svg_103" rx="92.5" ry="92" stroke-width="11"/>
   <ellipse fill="#ffffff" stroke="#000" cx="151.0481" cy="206.81004" id="svg_106" rx="87" ry="94" stroke-width="11"/>
   <ellipse fill="#ffffff" stroke="#000" cx="215.77044" cy="266.8616" id="svg_107" rx="15" ry="21.5" stroke-width="11" transform="rotate(9.72317, 164.6, 192.176) matrix(1.44127, -0.13673, 0.153007, 1.28795, -187.215, -122.026)"/>
   <ellipse fill="#ffffff" stroke="#000" cx="233.92066" cy="218.92264" id="svg_108" rx="12.5" ry="20" stroke-width="11" transform="rotate(-19.4293, 268.806, 167.191) matrix(1.23431, -0.0917523, 0.0999095, 1.13354, -41.7974, -59.5036)"/>
   <path fill="#ffffff" stroke="#000" stroke-width="11" d="m213.77276,211.93667l18.25765,-42.21944l25.62062,39.68334l-43.87827,2.53611z" id="svg_111"/>
  </g>
  <g transform="rotate(8.61754, 233.44, 86.8681)" id="svg_17">
   <path id="svg_14" d="m229.78031,127.81813c-22.49566,-4.10599 -36.85058,-17.83655 -36.24144,-38.31508c0.60914,-20.47852 23.84675,-35.18758 38.34686,-32.46688c14.50011,2.72071 20.1372,6.19912 28.50716,10.80558c8.36996,4.60646 11.26492,24.03994 -2.70572,28.83716c-13.97065,4.79722 -1.75309,-4.0261 6.29827,3.67804c8.05136,7.70413 6.40132,16.83083 -0.28283,24.08922c-6.68415,7.25838 -11.42664,7.47796 -33.9223,3.37197z" opacity="undefined" stroke-width="11" stroke="#ffffff" fill="#ffffff"/>
   <g transform="matrix(1.02889, 0.300063, -0.282982, 1.09099, 227.523, -265.827)" id="svg_12">
    <path fill="#ffffff" stroke="#000000" stroke-width="11" opacity="NaN" d="m62.11427,283.55287c-8.97986,8.52217 -13.81631,18.03322 -11.32498,29.33791c3.09427,12.19679 19.85362,22.10948 34.88991,22.47485c15.03629,0.36537 32.45708,-1.17848 40.83285,-9.45182c8.53128,-8.71751 8.82816,-21.12918 -5.03813,-24.13755" id="svg_136"/>
    <path fill="#ffffff" stroke="#000000" stroke-width="11" opacity="NaN" d="m72.20153,264.60087c-13.0433,15.51543 -8.69553,25.48964 -8.69553,25.48964" id="svg_128"/>
    <path id="svg_11" d="m62.62218,285.79186c1.37001,16.90074 16.13169,27.10443 37.70633,24.50873c21.57465,-2.5957 25.72661,-13.87685 21.85438,-26.17669" opacity="NaN" stroke-width="11" stroke="#000000" fill="#ffffff"/>
    <path fill="#ffffff" stroke="#000000" stroke-width="11" opacity="NaN" d="m72.6956,262.60267c-0.23056,19.7805 9.48604,24.11273 18.37919,22.43357" id="svg_126"/>
    <path id="svg_9" d="m75.46236,275.1292c30.96136,-7.7913 47.23255,4.70165 47.56192,12.25786" opacity="NaN" stroke-width="11" stroke="#000000" fill="#ffffff"/>
   </g>
  </g>
 </g>

</svg>